<svg viewBox="0 0 64 40" fill="none" xmlns="http://www.w3.org/2000/svg">
<g clip-path="url(#clip0_2941_216335)">
<rect width="64" height="40" rx="4" fill="white"/>
<g filter="url(#filter0_f_2941_216335)">
<circle cx="-4" cy="20" r="20" fill="#0DB43D"/>
</g>
<g filter="url(#filter1_f_2941_216335)">
<circle cx="72" cy="20" r="24" fill="#FFCD00"/>
</g>
</g>
<rect x="20" y="8" width="24" height="24" rx="12" fill="#283991"/>
<path d="M38.2536 14.0828L37.7947 14.6546L38.2731 15.2189L37.5311 15.0864L37.2639 15.7581L37.0186 15.0861L36.2914 15.2003L36.7684 14.6419L36.3088 14.0828L37.032 14.2112L37.2992 13.5251L37.5449 14.2112L38.2536 14.0828Z" fill="white"/>
<path d="M28.2296 26.3952L29.0388 25.3864L27.7887 25.6129L27.355 24.4019L26.8836 25.6129L25.6073 25.3864L26.4184 26.373L25.5762 27.3585L26.8599 27.1569L27.2928 28.3428L27.7645 27.1575L29.0737 27.3915L28.2296 26.3952Z" fill="white"/>
<path d="M37.7947 27.2863L38.2536 26.7146L37.5449 26.8429L37.2992 26.1568L37.032 26.8429L36.3088 26.7146L36.7684 27.2734L36.2914 27.8322L37.0186 27.7178L37.2639 28.3895L37.5311 27.7181L38.2731 27.8508L37.7947 27.2863Z" fill="white"/>
<path d="M40.7633 17.9223L41.2219 17.3504L40.5137 17.4789L40.2679 16.7928L40.0008 17.4789L39.2771 17.3504L39.7368 17.9096L39.2597 18.4682L39.9869 18.3537L40.2323 19.0258L40.4994 18.3541L41.2414 18.4866L40.7633 17.9223Z" fill="white"/>
<path d="M35.6856 18.8033L35.2267 19.375L35.7053 19.9394L34.9633 19.807L34.6962 20.4781L34.4508 19.8066L33.7236 19.9208L34.2005 19.3621L33.741 18.8033L34.4641 18.9318L34.7312 18.2457L34.977 18.9318L35.6856 18.8033Z" fill="white"/>
<path d="M28.1209 8.6443C28.3173 8.57742 28.5159 8.5153 28.717 8.45825V11.7778L32.0002 8.49539V8.77183L28.1209 12.6509V8.6443Z" fill="white"/>
<path d="M21.9821 13.3954H23.2685L22.52 12.6466C22.56 12.5949 22.6004 12.5432 22.6415 12.492L24.1414 13.9915H21.6143C21.7316 13.7891 21.8537 13.59 21.9821 13.3954Z" fill="white"/>
<path d="M32.0002 18.8936V19.2435L29.3875 16.6309H32.0002V17.2275H30.3341L32.0002 18.8936Z" fill="white"/>
<path d="M24.8852 18.8436V19.9999H25.4815V17.9707L23.4524 19.9999H23.7289L24.8852 18.8436Z" fill="white"/>
<path d="M25.4606 16.6311H20.483C20.4255 16.8279 20.3731 17.0267 20.3257 17.2275L23.268 17.2275L20.4951 19.9999H22.0916L25.4606 16.6311Z" fill="white"/>
<path d="M32.0002 13.9917V13.3954H30.3331L32.0002 11.7286V10.1325L28.1408 13.9917H32.0002Z" fill="white"/>
<path d="M24.8852 11.7782L24.0881 10.9815C23.8054 11.2299 23.534 11.4914 23.2758 11.7654L24.8852 13.3748L24.9023 13.3922L25.4815 13.9714V9.92669C25.2788 10.0584 25.0792 10.1942 24.8854 10.3375L24.8852 11.7782Z" fill="white"/>
<path d="M29.873 19.9999L28.717 18.8439V19.9999H28.1207V16.7248L31.396 19.9999H29.873Z" fill="white"/>
<path d="M29.9836 17.2275L29.3875 16.6311H32.0002V13.9917H28.1408L28.1209 14.012V13.9917H28.1408L32.0002 10.1327V8.77186L28.1207 12.6512V8.64453C27.183 8.96495 26.2981 9.3973 25.4813 9.92687V13.9714L25.502 13.9917H25.4813V13.9714L24.9021 13.3922L24.9055 13.3956H24.8852V13.3749L23.2758 11.7655C23.0549 11.9994 22.8433 12.2415 22.6415 12.4924L24.1413 13.9919H21.6143C21.1368 14.815 20.7551 15.6994 20.483 16.6312H25.4606L25.4813 16.6102V16.6312H25.4606L24.8852 17.2067V17.2277H24.8642L22.0916 20H23.4524L25.4815 17.9707V20H28.1209V16.7249L31.396 20H31.8464C31.8977 19.9464 31.95 19.8931 32.0004 19.838V19.2436L29.9836 17.2275Z" fill="#F44336"/>
<defs>
<filter id="filter0_f_2941_216335" x="-72" y="-48" width="136" height="136" filterUnits="userSpaceOnUse" color-interpolation-filters="sRGB">
<feFlood flood-opacity="0" result="BackgroundImageFix"/>
<feBlend mode="normal" in="SourceGraphic" in2="BackgroundImageFix" result="shape"/>
<feGaussianBlur stdDeviation="24" result="effect1_foregroundBlur_2941_216335"/>
</filter>
<filter id="filter1_f_2941_216335" x="0" y="-52" width="144" height="144" filterUnits="userSpaceOnUse" color-interpolation-filters="sRGB">
<feFlood flood-opacity="0" result="BackgroundImageFix"/>
<feBlend mode="normal" in="SourceGraphic" in2="BackgroundImageFix" result="shape"/>
<feGaussianBlur stdDeviation="24" result="effect1_foregroundBlur_2941_216335"/>
</filter>
<clipPath id="clip0_2941_216335">
<rect width="64" height="40" rx="4" fill="white"/>
</clipPath>
</defs>
</svg>
