<svg viewBox="0 0 64 40" fill="none" xmlns="http://www.w3.org/2000/svg">
<g clip-path="url(#clip0_2622_204860)">
<rect width="64" height="40" rx="4" fill="white"/>
<g filter="url(#filter0_f_2622_204860)">
<circle cx="-4" cy="20" r="20" fill="#F7931B"/>
</g>
<g filter="url(#filter1_f_2622_204860)">
<circle cx="72" cy="20" r="24" fill="#F7C71B"/>
</g>
</g>
<path d="M40.5595 18.6461C40.8108 18.6461 41.0357 18.6702 41.233 18.7192C41.4317 18.7682 41.6117 18.8316 41.7741 18.9114L41.3467 19.9038C41.2349 19.8577 41.1188 19.8173 40.9989 19.7798C40.8791 19.7423 40.7324 19.7241 40.5595 19.7241C40.1454 19.7241 39.8182 19.8697 39.5746 20.16C39.332 20.4507 39.2102 20.8414 39.2102 21.3321C39.2102 21.6228 39.2713 21.8578 39.3946 22.0376C39.5173 22.2173 39.7442 22.3067 40.0728 22.3067C40.2352 22.3067 40.3923 22.2894 40.5423 22.2558C40.6932 22.2216 40.827 22.1789 40.9445 22.1274L41.0372 23.1448C40.8805 23.2073 40.7076 23.2631 40.518 23.3126C40.3279 23.3596 40.1015 23.3846 39.8388 23.3846C39.4925 23.3846 39.1992 23.3327 38.9594 23.2309C38.7192 23.127 38.521 22.9896 38.3648 22.8156C38.2081 22.6412 38.0954 22.4379 38.0256 22.2039C37.9559 21.9703 37.9206 21.7247 37.9206 21.4686C37.9206 21.0812 37.9817 20.716 38.1045 20.3738C38.2267 20.0316 38.4035 19.7322 38.6327 19.4751C38.861 19.2199 39.139 19.0171 39.4662 18.8686C39.7924 18.7206 40.1569 18.6461 40.559 18.6461H40.5595ZM30.381 16.6282L29.8623 18.834C29.9731 18.7831 30.0854 18.7437 30.1967 18.7148C30.3089 18.686 30.4288 18.6716 30.5568 18.6716C30.8252 18.6716 31.0574 18.7206 31.2523 18.8172C31.4481 18.9143 31.6095 19.0455 31.7394 19.2108C31.867 19.3766 31.962 19.5703 32.0236 19.7923C32.0848 20.0148 32.1153 20.2541 32.1153 20.5108C32.1153 20.9044 32.0447 21.2763 31.9018 21.6267C31.7595 21.9775 31.5661 22.2822 31.3196 22.5422C31.0736 22.8017 30.7832 23.0059 30.4484 23.1573C30.114 23.3082 29.7506 23.3842 29.3599 23.3842C29.3097 23.3842 29.2209 23.3827 29.0952 23.3798C28.9701 23.3774 28.8259 23.364 28.6644 23.3414C28.502 23.3188 28.3301 23.2847 28.149 23.2385C27.9675 23.1938 27.7956 23.1304 27.6337 23.0506L29.0833 16.8334L30.381 16.6282ZM44.1642 18.6461C44.4547 18.6461 44.7102 18.6923 44.9313 18.7831C45.151 18.8744 45.3326 19.0032 45.4758 19.168C45.6177 19.3338 45.7252 19.5285 45.7978 19.7543C45.8708 19.9788 45.9067 20.2287 45.9067 20.5021C45.9067 20.8433 45.8537 21.186 45.7481 21.5286C45.6425 21.8699 45.4854 22.1779 45.2786 22.4523C45.0722 22.7258 44.8143 22.9492 44.5038 23.1232C44.1943 23.2967 43.8352 23.3842 43.4273 23.3842C43.1311 23.3842 42.8746 23.338 42.6563 23.2472C42.439 23.1559 42.2589 23.028 42.1166 22.8622C41.9738 22.6974 41.8673 22.5018 41.7942 22.2764C41.7206 22.0515 41.6858 21.8021 41.6858 21.5291C41.6858 21.1865 41.7398 20.8438 41.8482 20.5021C41.9571 20.16 42.1176 19.8524 42.3306 19.5789C42.5417 19.305 42.8025 19.0811 43.1091 18.9066C43.4158 18.7336 43.7683 18.6461 44.1642 18.6461ZM36.9022 17.4408L36.5837 18.7663H37.9745L37.7233 19.8091H36.341L35.9728 21.383C35.9388 21.5142 35.9193 21.6368 35.914 21.7502C35.9078 21.8646 35.9221 21.9631 35.9556 22.0457C35.989 22.1284 36.0487 22.1923 36.1356 22.238C36.2221 22.2836 36.3458 22.3067 36.5082 22.3067C36.6419 22.3067 36.7723 22.2937 36.8984 22.2683C37.0236 22.2428 37.1506 22.2072 37.2791 22.1611L37.3718 23.1367C37.2041 23.1991 37.0226 23.253 36.8272 23.2986C36.6314 23.3448 36.3993 23.3669 36.1313 23.3669C35.7464 23.3669 35.4478 23.3082 35.2348 23.1919C35.0227 23.0751 34.8723 22.9151 34.7825 22.7123C34.6936 22.5105 34.654 22.2779 34.6655 22.0159C34.6769 21.7531 34.7156 21.4772 34.7825 21.1865L35.604 17.646L36.9022 17.4408ZM34.5174 18.7663L33.4618 23.2645H32.2219L33.2688 18.7663H34.5174ZM48.3135 18.7663L47.2579 23.2645H46.017L47.0645 18.7663H48.3135ZM50.9816 18.6634C51.6355 18.6634 52.0864 18.8576 52.3352 19.2449C52.5836 19.6328 52.6266 20.1633 52.4656 20.8356L51.8953 23.2645H50.6472L51.1999 20.8871C51.2333 20.7381 51.26 20.5949 51.2796 20.4545C51.2992 20.3157 51.2983 20.1931 51.2748 20.0874C51.2529 19.9826 51.2013 19.8966 51.1206 19.8303C51.0389 19.7649 50.9152 19.7322 50.7475 19.7322C50.5856 19.7322 50.4213 19.75 50.2537 19.7841L49.4407 23.2645H48.1922L49.2062 18.9715C49.3003 18.9431 49.4054 18.9095 49.52 18.873C49.6346 18.836 49.7626 18.8018 49.9059 18.7711C50.0473 18.7394 50.2068 18.7134 50.3831 18.6937C50.5589 18.673 50.759 18.6634 50.9816 18.6634ZM30.2473 19.7322C30.169 19.7322 30.0677 19.7476 29.9421 19.775C29.816 19.8038 29.7033 19.8639 29.6025 19.9547L29.0499 22.2976L29.1377 22.3149C29.1621 22.3206 29.1893 22.3245 29.2166 22.3278C29.2452 22.3307 29.2782 22.3327 29.3178 22.3327H29.4683C29.6641 22.3327 29.848 22.2836 30.0209 22.187C30.1943 22.0909 30.3443 21.9602 30.4699 21.7978C30.595 21.6348 30.6944 21.4517 30.767 21.2461C30.8391 21.0409 30.8759 20.827 30.8759 20.6045C30.8759 20.3306 30.831 20.1172 30.7421 19.9629C30.6528 19.8091 30.4876 19.7322 30.2478 19.7322H30.2473ZM44.0472 19.7241C43.8633 19.7241 43.7009 19.7784 43.5619 19.886C43.422 19.9951 43.305 20.1316 43.2104 20.2969C43.1149 20.4627 43.0437 20.6434 42.9955 20.84C42.9487 21.037 42.9253 21.223 42.9253 21.3998C42.9253 21.6853 42.9701 21.9078 43.059 22.0679C43.1488 22.2264 43.3102 22.3067 43.5448 22.3067C43.7296 22.3067 43.891 22.2529 44.031 22.1438C44.1695 22.0361 44.287 21.8987 44.3825 21.7334C44.4776 21.5685 44.5487 21.3874 44.597 21.1903C44.6438 20.9942 44.6677 20.8068 44.6677 20.6304C44.6677 20.3459 44.6228 20.1229 44.533 19.9634C44.4437 19.8038 44.2817 19.7241 44.0472 19.7241ZM34.2499 16.7132C34.4228 16.7132 34.579 16.7661 34.7185 16.8713C34.8579 16.9771 34.9282 17.1385 34.9282 17.3543C34.9282 17.4745 34.9043 17.5869 34.8565 17.6927C34.8092 17.7984 34.7467 17.8892 34.6683 17.9666C34.5909 18.0435 34.4992 18.104 34.3961 18.1502C34.2924 18.1963 34.1826 18.2179 34.0655 18.2179C33.8926 18.2179 33.736 18.1651 33.5965 18.0598C33.4561 17.9551 33.3863 17.7941 33.3863 17.5768C33.3863 17.4567 33.4102 17.3452 33.458 17.239C33.5058 17.1333 33.5678 17.0429 33.6467 16.9651C33.725 16.8886 33.8153 16.8276 33.9189 16.7815C34.0221 16.7358 34.1324 16.7132 34.2499 16.7132ZM48.0451 16.7132C48.2184 16.7132 48.3751 16.7661 48.5146 16.8713C48.654 16.9771 48.7247 17.1385 48.7247 17.3543C48.7247 17.4745 48.6994 17.5869 48.6526 17.6927C48.6058 17.7984 48.5428 17.8892 48.4649 17.9666C48.3861 18.0435 48.2958 18.104 48.1926 18.1502C48.089 18.1963 47.9787 18.2179 47.8612 18.2179C47.6883 18.2179 47.5316 18.1651 47.3921 18.0598C47.2527 17.9551 47.1824 17.7941 47.1824 17.5768C47.1824 17.4567 47.2063 17.3452 47.2541 17.239C47.3009 17.1333 47.3639 17.0429 47.4423 16.9651C47.5206 16.8886 47.6118 16.8276 47.7145 16.7815C47.8177 16.7358 47.928 16.7132 48.0451 16.7132Z" fill="#4D4D4D"/>
<circle cx="18.5" cy="20" r="6.75" fill="#F7931B"/>
<path fill-rule="evenodd" clip-rule="evenodd" d="M17.9011 16.8217L18.1991 15.6042L18.9249 15.7887L18.6327 16.9822C18.8284 17.0283 19.0244 17.0745 19.2153 17.1225L19.5046 15.9367L20.2304 16.1212L19.9334 17.3396C20.8503 17.6615 21.5207 18.1449 21.3879 19.0443C21.2934 19.7015 20.9362 20.0206 20.4616 20.132C21.1129 20.4789 21.4443 21.0093 21.1291 21.9308C20.7366 23.0733 19.8055 23.1704 18.5677 22.9302L18.2669 24.1601L17.5411 23.9756L17.8372 22.763C17.65 22.7149 17.4571 22.664 17.2584 22.6092L16.9614 23.8277L16.2356 23.6432L16.5364 22.4113C16.0493 22.2846 15.5621 22.1587 15.0743 22.0346L15.4343 21.1861C15.4343 21.1861 15.9691 21.3303 15.9624 21.3207C16.1678 21.3725 16.2585 21.2351 16.2948 21.1439C16.5669 20.0322 16.8383 18.9204 17.1094 17.8086C17.119 17.651 17.0655 17.4521 16.7714 17.3771C16.7828 17.3685 16.2442 17.2435 16.2442 17.2435L16.4371 16.4518C16.9246 16.5758 17.411 16.7081 17.9011 16.8217ZM18.0687 20.1262C18.0015 20.1109 17.9422 20.0973 17.8935 20.0849L17.4953 21.7165C17.5357 21.7268 17.583 21.7396 17.636 21.7539C18.2278 21.9137 19.524 22.2636 19.73 21.4187C19.9409 20.5545 18.6805 20.2662 18.0687 20.1262ZM18.5865 17.8932C18.5294 17.8803 18.4791 17.869 18.4379 17.8585L18.0759 19.3383C18.1105 19.3471 18.1511 19.3581 18.1967 19.3705C18.6913 19.5049 19.7664 19.7972 19.9544 19.0308C20.146 18.2443 19.0975 18.0082 18.5865 17.8932Z" fill="white"/>
<defs>
<filter id="filter0_f_2622_204860" x="-72" y="-48" width="136" height="136" filterUnits="userSpaceOnUse" color-interpolation-filters="sRGB">
<feFlood flood-opacity="0" result="BackgroundImageFix"/>
<feBlend mode="normal" in="SourceGraphic" in2="BackgroundImageFix" result="shape"/>
<feGaussianBlur stdDeviation="24" result="effect1_foregroundBlur_2622_204860"/>
</filter>
<filter id="filter1_f_2622_204860" x="0" y="-52" width="144" height="144" filterUnits="userSpaceOnUse" color-interpolation-filters="sRGB">
<feFlood flood-opacity="0" result="BackgroundImageFix"/>
<feBlend mode="normal" in="SourceGraphic" in2="BackgroundImageFix" result="shape"/>
<feGaussianBlur stdDeviation="24" result="effect1_foregroundBlur_2622_204860"/>
</filter>
<clipPath id="clip0_2622_204860">
<rect width="64" height="40" rx="4" fill="white"/>
</clipPath>
</defs>
</svg>
