<svg viewBox="0 0 64 40" fill="none" xmlns="http://www.w3.org/2000/svg">
<g clip-path="url(#clip0_2622_204880)">
<rect width="64" height="40" rx="4" fill="white"/>
<g filter="url(#filter0_f_2622_204880)">
<circle cx="-4" cy="20" r="20" fill="#52567F"/>
</g>
<g filter="url(#filter1_f_2622_204880)">
<circle cx="72" cy="20" r="24" fill="#828CAD"/>
</g>
</g>
<path d="M10.25 19.8116L13.7083 21.8577V18.2407V14.0698L10.25 19.8116Z" fill="#828CAD"/>
<path d="M13.7084 14.0698V18.2407V21.8577L17.1708 19.8116L13.7084 14.0698Z" fill="#63688E"/>
<path d="M10.25 20.47L13.7083 25.3453V22.5114L10.25 20.47Z" fill="#8A93B3"/>
<path d="M13.7084 22.5114V25.3453L17.1708 20.47L13.7084 22.5114Z" fill="#63688E"/>
<path opacity="0.6" d="M13.7083 18.2407L10.25 19.8116L13.7083 21.8577V19.8116V18.2407Z" fill="#63688E"/>
<path opacity="0.6" d="M13.7084 18.2407V19.8116V21.8577L17.1708 19.8116L13.7084 18.2407Z" fill="#474A75"/>
<path d="M28.0625 16.1562C28.2178 16.1562 28.3438 16.2822 28.3438 16.4375V19.1598C28.6217 18.9237 28.9817 18.7812 29.375 18.7812C30.2552 18.7812 30.9688 19.4948 30.9688 20.375V22.0625C30.9688 22.2178 30.8428 22.3438 30.6875 22.3438C30.5322 22.3438 30.4062 22.2178 30.4062 22.0625V20.375C30.4062 19.8055 29.9445 19.3438 29.375 19.3438C28.8055 19.3438 28.3438 19.8055 28.3438 20.375V22.0625C28.3438 22.2178 28.2178 22.3438 28.0625 22.3438C27.9072 22.3438 27.7812 22.2178 27.7812 22.0625V16.4375C27.7812 16.2822 27.9072 16.1562 28.0625 16.1562Z" fill="#63688E"/>
<path d="M49.625 18.7812C49.2318 18.7812 48.8718 18.9237 48.5938 19.1598V19.0625C48.5938 18.9072 48.4679 18.7812 48.3125 18.7812C48.1572 18.7812 48.0313 18.9072 48.0313 19.0625V22.0625C48.0313 22.2178 48.1572 22.3438 48.3125 22.3438C48.4679 22.3438 48.5938 22.2178 48.5938 22.0625V20.375C48.5938 19.8055 49.0555 19.3438 49.625 19.3438C50.1946 19.3438 50.6563 19.8055 50.6563 20.375V22.0625C50.6563 22.2178 50.7822 22.3438 50.9375 22.3438C51.0929 22.3438 51.2188 22.2178 51.2188 22.0625V20.375C51.2188 19.8055 51.6805 19.3438 52.25 19.3438C52.8196 19.3438 53.2813 19.8055 53.2813 20.375V22.0625C53.2813 22.2178 53.4072 22.3438 53.5625 22.3438C53.7179 22.3438 53.8438 22.2178 53.8438 22.0625V20.375C53.8438 19.4948 53.1302 18.7812 52.25 18.7812C51.7057 18.7812 51.2251 19.0542 50.9375 19.4706C50.65 19.0542 50.1694 18.7812 49.625 18.7812Z" fill="#63688E"/>
<path d="M44.2813 19.0625C44.2813 18.9072 44.1554 18.7812 44 18.7812C43.8447 18.7812 43.7188 18.9072 43.7188 19.0625V20.75C43.7188 21.6302 44.4323 22.3438 45.3125 22.3438C45.7058 22.3438 46.0658 22.2013 46.3438 21.9652V22.0625C46.3438 22.2178 46.4697 22.3438 46.625 22.3438C46.7804 22.3438 46.9063 22.2178 46.9063 22.0625V19.0625C46.9063 18.9072 46.7804 18.7812 46.625 18.7812C46.4697 18.7812 46.3438 18.9072 46.3438 19.0625V20.75C46.3438 21.3195 45.8821 21.7812 45.3125 21.7812C44.743 21.7812 44.2813 21.3195 44.2813 20.75V19.0625Z" fill="#63688E"/>
<path d="M36.7813 19.0625V20.1829L36.7813 20.189L36.7813 20.1928V22.0625C36.7813 22.2178 36.9072 22.3438 37.0625 22.3438C37.2179 22.3438 37.3438 22.2178 37.3438 22.0625V20.2156L37.3464 20.2043C37.3521 20.1805 37.3616 20.1446 37.3762 20.1007C37.4058 20.0119 37.4546 19.8955 37.5309 19.781C37.6784 19.5599 37.9265 19.3438 38.375 19.3438C38.5304 19.3438 38.6563 19.2178 38.6563 19.0625C38.6563 18.9072 38.5304 18.7812 38.375 18.7812C37.9177 18.7812 37.583 18.9396 37.3438 19.1477V19.0625C37.3438 18.9072 37.2179 18.7812 37.0625 18.7812C36.9072 18.7812 36.7813 18.9072 36.7813 19.0625Z" fill="#63688E"/>
<path d="M25.7188 17.9375C25.7188 17.7822 25.5928 17.6562 25.4375 17.6562C25.2822 17.6562 25.1562 17.7822 25.1562 17.9375V18.7812H24.5C24.3447 18.7812 24.2188 18.9072 24.2188 19.0625C24.2188 19.2178 24.3447 19.3438 24.5 19.3438H25.1562V22.0625C25.1562 22.2178 25.2822 22.3438 25.4375 22.3438C25.5928 22.3438 25.7188 22.2178 25.7188 22.0625V19.3438H26.375C26.5303 19.3438 26.6562 19.2178 26.6562 19.0625C26.6562 18.9072 26.5303 18.7812 26.375 18.7812H25.7188V17.9375Z" fill="#63688E"/>
<path fill-rule="evenodd" clip-rule="evenodd" d="M21.5948 18.8038C21.1766 18.7366 20.7482 18.8207 20.3865 19.0409C20.0247 19.261 19.7532 19.6029 19.6207 20.0051C19.4882 20.4074 19.5033 20.8436 19.6634 21.2357C19.8234 21.6278 20.1179 21.95 20.4941 22.1446C20.8702 22.3392 21.3034 22.3934 21.7159 22.2975C22.1284 22.2016 22.4932 21.9618 22.7449 21.6213C22.8373 21.4964 22.8108 21.3202 22.6859 21.2279C22.561 21.1356 22.3849 21.162 22.2926 21.2869C22.1204 21.5199 21.8707 21.684 21.5885 21.7496C21.3063 21.8152 21.0099 21.7781 20.7525 21.645C20.4952 21.5119 20.2937 21.2914 20.1841 21.0231C20.1603 20.9646 20.1411 20.9046 20.1266 20.8437H22.8125C22.9678 20.8437 23.0938 20.7178 23.0938 20.5625C23.0938 20.139 22.9429 19.7294 22.6682 19.4071C22.3935 19.0848 22.0129 18.8709 21.5948 18.8038ZM22.4984 20.2812H20.1266C20.1346 20.2476 20.1441 20.2142 20.155 20.1811C20.2456 19.9059 20.4314 19.672 20.6789 19.5214C20.9264 19.3708 21.2195 19.3132 21.5056 19.3591C21.7917 19.4051 22.0521 19.5514 22.2401 19.7719C22.3661 19.9199 22.4541 20.0947 22.4984 20.2812Z" fill="#63688E"/>
<path fill-rule="evenodd" clip-rule="evenodd" d="M33.1365 19.0409C33.4982 18.8207 33.9266 18.7366 34.3448 18.8038C34.7629 18.8709 35.1435 19.0848 35.4182 19.4071C35.6929 19.7294 35.8438 20.139 35.8438 20.5625V20.8437H32.8766C32.8911 20.9046 32.9103 20.9646 32.9341 21.0231C33.0437 21.2914 33.2452 21.5119 33.5025 21.645C33.7599 21.7781 34.0563 21.8152 34.3385 21.7496C34.6207 21.684 34.8704 21.5199 35.0426 21.2869C35.1349 21.162 35.311 21.1356 35.4359 21.2279C35.5608 21.3202 35.5873 21.4964 35.4949 21.6213C35.2432 21.9618 34.8784 22.2016 34.4659 22.2975C34.0534 22.3934 33.6202 22.3392 33.2441 22.1446C32.8679 21.95 32.5734 21.6278 32.4134 21.2357C32.2533 20.8436 32.2382 20.4074 32.3707 20.0051C32.5032 19.6029 32.7747 19.261 33.1365 19.0409ZM32.8766 20.2812H35.2484C35.2041 20.0947 35.1161 19.9199 34.9901 19.7719C34.8021 19.5514 34.5417 19.4051 34.2556 19.3591C33.9695 19.3132 33.6764 19.3708 33.4289 19.5214C33.1814 19.672 32.9956 19.9059 32.905 20.1811C32.8941 20.2142 32.8846 20.2476 32.8766 20.2812Z" fill="#63688E"/>
<path fill-rule="evenodd" clip-rule="evenodd" d="M41.4698 18.8038C41.0516 18.7366 40.6232 18.8207 40.2615 19.0409C39.8997 19.261 39.6282 19.6029 39.4957 20.0051C39.3632 20.4074 39.3783 20.8436 39.5384 21.2357C39.6984 21.6278 39.9929 21.95 40.3691 22.1446C40.7452 22.3392 41.1784 22.3934 41.5909 22.2975C42.0034 22.2016 42.3682 21.9618 42.6199 21.6213C42.7123 21.4964 42.6858 21.3202 42.5609 21.2279C42.436 21.1356 42.2599 21.162 42.1676 21.2869C41.9954 21.5199 41.7457 21.684 41.4635 21.7496C41.1813 21.8152 40.8849 21.7781 40.6275 21.645C40.3702 21.5119 40.1687 21.2914 40.0591 21.0231C40.0353 20.9646 40.0161 20.9046 40.0016 20.8437H42.9688V20.5625C42.9688 20.139 42.8179 19.7294 42.5432 19.4071C42.2685 19.0848 41.8879 18.8709 41.4698 18.8038ZM42.3734 20.2812H40.0016C40.0096 20.2476 40.0191 20.2142 40.03 20.1811C40.1206 19.9059 40.3064 19.672 40.5539 19.5214C40.8014 19.3708 41.0945 19.3132 41.3806 19.3591C41.6667 19.4051 41.9271 19.5514 42.1151 19.7719C42.2411 19.9199 42.3291 20.0947 42.3734 20.2812Z" fill="#63688E"/>
<defs>
<filter id="filter0_f_2622_204880" x="-72" y="-48" width="136" height="136" filterUnits="userSpaceOnUse" color-interpolation-filters="sRGB">
<feFlood flood-opacity="0" result="BackgroundImageFix"/>
<feBlend mode="normal" in="SourceGraphic" in2="BackgroundImageFix" result="shape"/>
<feGaussianBlur stdDeviation="24" result="effect1_foregroundBlur_2622_204880"/>
</filter>
<filter id="filter1_f_2622_204880" x="0" y="-52" width="144" height="144" filterUnits="userSpaceOnUse" color-interpolation-filters="sRGB">
<feFlood flood-opacity="0" result="BackgroundImageFix"/>
<feBlend mode="normal" in="SourceGraphic" in2="BackgroundImageFix" result="shape"/>
<feGaussianBlur stdDeviation="24" result="effect1_foregroundBlur_2622_204880"/>
</filter>
<clipPath id="clip0_2622_204880">
<rect width="64" height="40" rx="4" fill="white"/>
</clipPath>
</defs>
</svg>
