<svg viewBox="0 0 64 40" fill="none" xmlns="http://www.w3.org/2000/svg">
<g clip-path="url(#clip0_2622_204897)">
<rect width="64" height="40" rx="4" fill="white"/>
<g filter="url(#filter0_f_2622_204897)">
<circle cx="-4" cy="20" r="20" fill="#A5A8A9"/>
</g>
<g filter="url(#filter1_f_2622_204897)">
<circle cx="72" cy="20" r="24" fill="#C1CCCF"/>
</g>
</g>
<path d="M18.528 14.75C17.4838 14.75 16.4631 15.0596 15.595 15.6397C14.7268 16.2198 14.0502 17.0443 13.6506 18.009C13.251 18.9736 13.1465 20.0351 13.3502 21.0592C13.5539 22.0832 14.0567 23.0239 14.795 23.7622C15.5333 24.5005 16.474 25.0033 17.498 25.207C18.5221 25.4107 19.5836 25.3062 20.5482 24.9066C21.5129 24.5071 22.3374 23.8304 22.9175 22.9622C23.4976 22.0941 23.8072 21.0734 23.8072 20.0292C23.8072 19.336 23.6707 18.6495 23.4053 18.009C23.14 17.3685 22.7512 16.7865 22.261 16.2963C21.7707 15.806 21.1888 15.4172 20.5482 15.1519C19.9077 14.8866 19.2212 14.75 18.528 14.75V14.75ZM18.6135 20.2029L18.0644 22.0559H21.0016C21.0249 22.0559 21.048 22.0614 21.0688 22.0719C21.0897 22.0824 21.1079 22.0976 21.1218 22.1163C21.1358 22.135 21.1453 22.1567 21.1495 22.1797C21.1536 22.2027 21.1524 22.2263 21.1459 22.2487L20.8905 23.1286C20.8783 23.1706 20.8528 23.2076 20.8177 23.2338C20.7827 23.2601 20.7401 23.2742 20.6964 23.2742H16.2102L16.9687 20.7125L16.1297 20.9679L16.3149 20.3689L17.1552 20.1135L18.2202 16.5149C18.2319 16.4727 18.2571 16.4355 18.2919 16.409C18.3267 16.3825 18.3693 16.3681 18.413 16.368H19.5496C19.5729 16.3679 19.5959 16.3732 19.6168 16.3836C19.6378 16.3939 19.656 16.4089 19.6701 16.4275C19.6842 16.4461 19.6938 16.4677 19.6982 16.4906C19.7025 16.5135 19.7015 16.5371 19.6952 16.5596L18.8012 19.6027L19.6403 19.3473L19.4602 19.9565L18.6135 20.2029Z" fill="#A5A8A9"/>
<path d="M28.5622 16.3096C28.6414 16.3017 28.7212 16.3176 28.7914 16.3551C28.8853 16.4053 28.9554 16.4905 28.9865 16.5922C29.0176 16.6939 29.0072 16.8038 28.9575 16.8979C28.9202 16.9683 28.863 17.026 28.7929 17.0639C28.7228 17.1017 28.6431 17.1179 28.5638 17.1103C28.4845 17.1028 28.4092 17.0719 28.3475 17.0216C28.2858 16.9712 28.2404 16.9037 28.2171 16.8275C28.1939 16.7514 28.1937 16.67 28.2167 16.5938C28.2397 16.5175 28.2848 16.4498 28.3463 16.3992C28.4078 16.3486 28.4829 16.3174 28.5622 16.3096Z" fill="#4D4D4E"/>
<path d="M26.5311 16.3526H26.8606C26.9245 16.3526 26.9628 16.3807 26.9526 16.4547L26.0957 23.1783C26.0958 23.1925 26.0929 23.2065 26.0871 23.2195C26.0813 23.2324 26.0728 23.244 26.0621 23.2533C26.0514 23.2626 26.0389 23.2696 26.0252 23.2736C26.0116 23.2776 25.9973 23.2787 25.9833 23.2766H25.6564C25.5887 23.2766 25.567 23.2421 25.5746 23.1783L26.42 16.4522C26.4207 16.4383 26.4241 16.4247 26.43 16.4122C26.436 16.3996 26.4444 16.3884 26.4547 16.3791C26.4651 16.3698 26.4772 16.3627 26.4903 16.3582C26.5034 16.3536 26.5173 16.3517 26.5311 16.3526Z" fill="#4D4D4E"/>
<path d="M28.2488 18.2911H28.5744C28.6459 18.2911 28.6676 18.3256 28.6651 18.392L28.0636 23.1783C28.0632 23.1929 28.0598 23.2073 28.0534 23.2204C28.047 23.2336 28.0379 23.2452 28.0266 23.2545C28.0154 23.2638 28.0022 23.2706 27.9881 23.2744C27.974 23.2783 27.9593 23.279 27.9448 23.2766H27.6179C27.5566 23.2766 27.5183 23.2434 27.526 23.1783L28.1364 18.3894C28.1368 18.3754 28.1402 18.3617 28.1462 18.349C28.1522 18.3364 28.1607 18.3251 28.1712 18.3159C28.1818 18.3066 28.1941 18.2997 28.2074 18.2954C28.2208 18.2912 28.2348 18.2897 28.2488 18.2911Z" fill="#4D4D4E"/>
<path fill-rule="evenodd" clip-rule="evenodd" d="M42.9218 18.2119C42.499 18.2022 42.0854 18.337 41.7495 18.594C41.4135 18.851 41.1753 19.2149 41.074 19.6256C40.983 20.0068 40.9152 20.3932 40.8709 20.7826C40.8185 21.1662 40.7878 21.5525 40.779 21.9396C40.7747 22.1285 40.8085 22.3164 40.8785 22.4919C40.9485 22.6675 41.0532 22.8271 41.1864 22.9612C41.452 23.2166 41.8159 23.3443 42.2782 23.3443C42.7016 23.3539 43.1156 23.2187 43.4518 22.9612C43.7833 22.7064 44.0176 22.3459 44.1159 21.9396C44.2081 21.5586 44.2759 21.1722 44.3189 20.7826C44.3708 20.3955 44.4011 20.0058 44.4096 19.6154C44.4182 19.4264 44.3868 19.2377 44.3175 19.0616C44.2482 18.8856 44.1425 18.7262 44.0073 18.5938C43.7101 18.3281 43.3199 18.1909 42.9218 18.2119ZM43.8451 20.3177C43.8145 20.5617 43.7953 20.7175 43.7889 20.7826C43.7277 21.2768 43.6727 21.6305 43.6255 21.8412C43.5619 22.1429 43.3964 22.4135 43.1568 22.6075C42.923 22.7969 42.6301 22.8981 42.3293 22.8935C42.1924 22.9026 42.0551 22.8825 41.9265 22.8345C41.798 22.7865 41.6811 22.7117 41.5836 22.6151C41.4862 22.5185 41.4104 22.4023 41.3613 22.2741C41.3121 22.146 41.2908 22.0089 41.2987 21.8719C41.3016 21.6668 41.317 21.4621 41.3447 21.2589C41.3754 21.015 41.3945 20.8605 41.4009 20.7941C41.4622 20.3203 41.5171 19.9666 41.5644 19.7367C41.6284 19.4352 41.7938 19.1648 42.033 18.9705C42.2671 18.7816 42.5598 18.6805 42.8605 18.6844C42.9975 18.6753 43.1348 18.6954 43.2633 18.7434C43.3919 18.7914 43.5088 18.8662 43.6062 18.9628C43.7037 19.0594 43.7795 19.1757 43.8286 19.3038C43.8777 19.4319 43.899 19.569 43.8911 19.706C43.8882 19.9107 43.8728 20.115 43.8451 20.3177Z" fill="#4D4D4E"/>
<path d="M45.9561 18.2911H46.2817C46.3456 18.2911 46.3724 18.3256 46.3634 18.3894L45.762 23.1783C45.7613 23.1922 45.7579 23.2059 45.7518 23.2185C45.7458 23.231 45.7372 23.2422 45.7267 23.2514C45.7162 23.2606 45.704 23.2676 45.6907 23.2719C45.6775 23.2762 45.6635 23.2778 45.6496 23.2766H45.3227C45.2614 23.2766 45.2218 23.2473 45.2307 23.1783L45.8437 18.3894C45.8457 18.3615 45.8586 18.3355 45.8796 18.3171C45.9007 18.2987 45.9282 18.2893 45.9561 18.2911Z" fill="#4D4D4E"/>
<path d="M50.4116 18.5733C50.1868 18.3383 49.8714 18.2221 49.4627 18.2221C49.2098 18.2194 48.9592 18.2717 48.7284 18.3754C48.5025 18.4787 48.3058 18.6367 48.1563 18.8351C48.1295 18.8607 48.1155 18.8543 48.1155 18.8147L48.1665 18.3894C48.1742 18.3294 48.1474 18.2911 48.0848 18.2911H47.7592C47.7453 18.2899 47.7313 18.2915 47.718 18.2958C47.7048 18.3001 47.6925 18.3071 47.682 18.3163C47.6715 18.3255 47.663 18.3367 47.6569 18.3493C47.6509 18.3618 47.6474 18.3755 47.6468 18.3894L47.0453 23.1783C47.0377 23.2409 47.0594 23.2766 47.127 23.2766H47.454C47.4678 23.2777 47.4818 23.2759 47.4949 23.2715C47.5081 23.2671 47.5203 23.2602 47.5308 23.251C47.5412 23.2419 47.5498 23.2307 47.5559 23.2182C47.562 23.2057 47.5655 23.1922 47.5663 23.1783L48.0044 19.7469C48.0668 19.4494 48.2246 19.1803 48.4539 18.9807C48.6777 18.7862 48.9657 18.6816 49.2622 18.687C49.3905 18.6815 49.5184 18.7034 49.6375 18.7511C49.7566 18.7989 49.8642 18.8715 49.9531 18.9641C50.132 19.166 50.2238 19.4304 50.2085 19.6997C50.21 19.7726 50.2065 19.8455 50.1983 19.918L49.7807 23.1783C49.7778 23.1902 49.7776 23.2026 49.7803 23.2146C49.7829 23.2265 49.7883 23.2377 49.796 23.2473C49.8058 23.2575 49.8178 23.2655 49.831 23.2706C49.8443 23.2756 49.8585 23.2777 49.8727 23.2766H50.1983C50.2122 23.2778 50.2262 23.2762 50.2395 23.2719C50.2527 23.2676 50.265 23.2606 50.2755 23.2514C50.286 23.2422 50.2945 23.231 50.3005 23.2185C50.3066 23.2059 50.31 23.1922 50.3107 23.1783L50.7295 19.8363C50.7436 19.7086 50.75 19.6052 50.75 19.54C50.7602 19.3645 50.7355 19.1888 50.6774 19.0228C50.6193 18.8569 50.529 18.7042 50.4116 18.5733Z" fill="#4D4D4E"/>
<path d="M46.5153 16.3551C46.4449 16.3182 46.365 16.303 46.2859 16.3115C46.2068 16.32 46.1319 16.3517 46.0709 16.4027C46.0098 16.4537 45.9652 16.5217 45.9428 16.598C45.9203 16.6744 45.921 16.7557 45.9448 16.8316C45.9686 16.9075 46.0143 16.9747 46.0763 17.0247C46.1382 17.0746 46.2136 17.105 46.2929 17.1121C46.3721 17.1192 46.4517 17.1027 46.5215 17.0645C46.5914 17.0264 46.6483 16.9684 46.6852 16.8979C46.7346 16.8034 46.7445 16.6931 46.7126 16.5913C46.6808 16.4896 46.6098 16.4046 46.5153 16.3551Z" fill="#4D4D4E"/>
<path d="M37.4714 18.6027C37.8095 18.3406 38.2275 18.2026 38.6552 18.2119C39.053 18.1889 39.4438 18.3243 39.7419 18.5886C39.8775 18.7208 39.9836 18.8802 40.0531 19.0562C40.1227 19.2323 40.1542 19.4211 40.1455 19.6103V19.7265C40.1455 19.7343 40.1439 19.742 40.1409 19.7493C40.1379 19.7565 40.1334 19.763 40.1278 19.7685C40.1222 19.7739 40.1156 19.7782 40.1083 19.7811C40.1011 19.784 40.0933 19.7854 40.0855 19.7852H39.7024C39.6922 19.7852 39.6822 19.7832 39.6729 19.7793C39.6636 19.7753 39.6552 19.7695 39.6482 19.7623C39.6411 19.755 39.6356 19.7464 39.632 19.7369C39.6284 19.7275 39.6267 19.7174 39.627 19.7073V19.6997C39.6349 19.5625 39.6136 19.4253 39.5644 19.2971C39.5152 19.1689 39.4393 19.0526 39.3417 18.9559C39.2441 18.8593 39.1271 18.7846 38.9983 18.7366C38.8696 18.6887 38.7322 18.6687 38.5952 18.678C38.2948 18.6741 38.0025 18.7753 37.7689 18.9641C37.5303 19.1602 37.3665 19.4326 37.3054 19.7354C37.2568 19.9653 37.2032 20.319 37.1419 20.7928C37.1343 20.8592 37.1113 21.0546 37.0857 21.2576C37.058 21.4608 37.0427 21.6655 37.0398 21.8706C37.0318 22.0076 37.0532 22.1447 37.1023 22.2729C37.1514 22.401 37.2272 22.5172 37.3246 22.6138C37.4221 22.7104 37.539 22.7852 37.6675 22.8332C37.7961 22.8812 37.9334 22.9013 38.0703 22.8922C38.3708 22.8971 38.6634 22.7958 38.8966 22.6062C39.1365 22.4122 39.3024 22.1417 39.3665 21.84C39.366 21.8336 39.366 21.8272 39.3665 21.8208C39.37 21.807 39.3781 21.7948 39.3895 21.7862C39.4008 21.7776 39.4148 21.7731 39.4291 21.7736H39.8313C39.8382 21.7736 39.845 21.7751 39.8512 21.7782C39.8574 21.7812 39.8629 21.7855 39.8672 21.7909C39.8715 21.7963 39.8745 21.8026 39.876 21.8093C39.8776 21.816 39.8776 21.823 39.876 21.8297C39.8671 21.8681 39.8582 21.9038 39.8492 21.9383C39.7523 22.3449 39.5182 22.7057 39.1864 22.9599C38.8501 23.2173 38.4362 23.3524 38.0128 23.343C37.5506 23.343 37.1866 23.2153 36.921 22.9599C36.7871 22.8263 36.6819 22.6667 36.6116 22.4911C36.5414 22.3155 36.5076 22.1274 36.5123 21.9383C36.5222 21.5513 36.5528 21.165 36.6043 20.7813C36.6511 20.3922 36.7193 20.0059 36.8086 19.6243C36.9076 19.2186 37.1412 18.8584 37.4714 18.6027Z" fill="#4D4D4E"/>
<path fill-rule="evenodd" clip-rule="evenodd" d="M35.3605 18.5976C35.0632 18.3312 34.6724 18.1934 34.2738 18.2145C33.8509 18.2048 33.4374 18.3396 33.1014 18.5966C32.7655 18.8536 32.5272 19.2175 32.4259 19.6281C32.3353 20.0094 32.2675 20.3958 32.2229 20.7851C32.1635 21.168 32.1328 21.5547 32.1309 21.9421C32.1266 22.1311 32.1605 22.3189 32.2305 22.4945C32.3005 22.67 32.4052 22.8296 32.5383 22.9638C32.8039 23.2192 33.1679 23.3469 33.6302 23.3469C34.0535 23.3564 34.4675 23.2213 34.8037 22.9638C35.1355 22.7092 35.3698 22.3486 35.4678 21.9421C35.4767 21.9076 35.4857 21.8719 35.4946 21.8336C35.4961 21.8269 35.4962 21.8199 35.4946 21.8132C35.4931 21.8064 35.4901 21.8001 35.4858 21.7947C35.4815 21.7893 35.476 21.785 35.4698 21.782C35.4636 21.779 35.4568 21.7774 35.4499 21.7774H35.0438C35.0296 21.7772 35.0158 21.7817 35.0044 21.7903C34.9931 21.7988 34.9849 21.8109 34.9812 21.8246V21.8438C34.9177 22.1454 34.7522 22.416 34.5126 22.61C34.2771 22.7972 33.9833 22.8958 33.6825 22.8884C33.5456 22.8975 33.4083 22.8774 33.2797 22.8294C33.1512 22.7814 33.0343 22.7066 32.9368 22.61C32.8394 22.5134 32.7636 22.3972 32.7145 22.269C32.6654 22.1409 32.644 22.0038 32.6519 21.8668C32.6543 21.6879 32.6666 21.5092 32.689 21.3317L35.6376 20.4186C35.6647 20.4127 35.6888 20.3977 35.706 20.3761C35.7233 20.3544 35.7325 20.3275 35.7321 20.2999C35.75 20.1466 35.7615 19.8874 35.7641 19.6218C35.7692 19.4327 35.7361 19.2445 35.6668 19.0685C35.5975 18.8925 35.4933 18.7323 35.3605 18.5976ZM35.2443 19.9755C35.2438 19.9897 35.2389 20.0034 35.2302 20.0146C35.2215 20.0259 35.2094 20.0341 35.1958 20.0381L32.7516 20.7928V20.7826C32.8129 20.3088 32.8678 19.9551 32.915 19.7252C32.9791 19.4237 33.1445 19.1533 33.3837 18.959C33.6178 18.7702 33.9105 18.669 34.2112 18.6729C34.3493 18.6674 34.487 18.6904 34.6157 18.7405C34.7445 18.7906 34.8615 18.8667 34.9595 18.9641C35.2609 19.2591 35.2622 19.5745 35.2443 19.9755Z" fill="#4D4D4E"/>
<path d="M31.0574 22.7366C31.0429 22.7361 31.0286 22.7396 31.016 22.7467C30.8066 22.845 30.4069 22.9395 30.1949 22.7607C30.0428 22.6135 30.0745 22.3508 30.1101 22.0563C30.1115 22.0443 30.113 22.0322 30.1145 22.02L30.472 19.1429H31.4937C31.5227 19.1448 31.5516 19.1366 31.5754 19.1199C31.5953 19.0994 31.6063 19.0718 31.606 19.0433L31.6341 18.816C31.638 18.7534 31.6111 18.7176 31.5524 18.7176H30.5308L30.7249 17.1341C30.7338 17.0779 30.7185 17.0358 30.6431 17.0358H30.3277C30.3138 17.0344 30.2997 17.0358 30.2864 17.0401C30.273 17.0444 30.2607 17.0513 30.2502 17.0605C30.2396 17.0698 30.2311 17.081 30.2251 17.0937C30.2191 17.1064 30.2158 17.1201 30.2153 17.1341L30.0723 18.2515L30.011 18.7559L29.5794 22.2627C29.5257 22.7237 29.6215 23.0927 29.9957 23.2639C30.3264 23.3851 30.6901 23.3801 31.0173 23.2498C31.0373 23.242 31.0548 23.229 31.068 23.2122C31.0813 23.1953 31.0898 23.1753 31.0927 23.154L31.1335 22.8233C31.1349 22.8089 31.1323 22.7944 31.126 22.7814C31.1198 22.7684 31.1101 22.7573 31.098 22.7494C31.0859 22.7415 31.0718 22.7371 31.0574 22.7366Z" fill="#4D4D4E"/>
<defs>
<filter id="filter0_f_2622_204897" x="-72" y="-48" width="136" height="136" filterUnits="userSpaceOnUse" color-interpolation-filters="sRGB">
<feFlood flood-opacity="0" result="BackgroundImageFix"/>
<feBlend mode="normal" in="SourceGraphic" in2="BackgroundImageFix" result="shape"/>
<feGaussianBlur stdDeviation="24" result="effect1_foregroundBlur_2622_204897"/>
</filter>
<filter id="filter1_f_2622_204897" x="0" y="-52" width="144" height="144" filterUnits="userSpaceOnUse" color-interpolation-filters="sRGB">
<feFlood flood-opacity="0" result="BackgroundImageFix"/>
<feBlend mode="normal" in="SourceGraphic" in2="BackgroundImageFix" result="shape"/>
<feGaussianBlur stdDeviation="24" result="effect1_foregroundBlur_2622_204897"/>
</filter>
<clipPath id="clip0_2622_204897">
<rect width="64" height="40" rx="4" fill="white"/>
</clipPath>
</defs>
</svg>
