<svg viewBox="0 0 64 40" fill="none" xmlns="http://www.w3.org/2000/svg">
<g clip-path="url(#clip0_2941_216340)">
<rect width="64" height="40" rx="4" fill="white"/>
<g filter="url(#filter0_f_2941_216340)">
<circle cx="-4" cy="20" r="20" fill="#F44336"/>
</g>
<g filter="url(#filter1_f_2941_216340)">
<circle cx="72" cy="20" r="24" fill="#283991"/>
</g>
</g>
<rect x="20" y="8" width="24" height="24" rx="12" fill="white"/>
<path fill-rule="evenodd" clip-rule="evenodd" d="M31.4925 8C29.1814 8.13319 27.0473 8.92039 25.2699 10.1774H39.1179C37.3403 8.92039 35.2062 8.13319 32.895 8H32.5258H31.4925ZM22.9233 12.3543C22.3731 13.023 21.8963 13.7532 21.5 14.5315L35.9297 14.5317H42.8877C42.4912 13.7534 42.0149 13.0231 41.4642 12.3545L36.1349 12.3543H22.9233ZM20.0496 18.9079C20.1151 18.1602 20.2501 17.433 20.4472 16.731H43.5365C43.7337 17.4328 43.8686 18.1602 43.9344 18.9079H20.0496ZM20.0541 21.0857C20.1236 21.8338 20.2635 22.561 20.4646 23.2626H43.5193C43.7206 22.561 43.8603 21.8336 43.9298 21.0857H20.0541ZM22.7723 27.6172C22.2153 26.9493 21.7317 26.219 21.3293 25.44H36.4643L42.6545 25.44C42.2522 26.219 41.7686 26.9493 41.2115 27.6172H35.3734L22.7723 27.6172ZM31.4845 31.9587L31.5209 31.96L31.5572 31.9613C31.7015 31.9665 31.8462 31.97 31.9918 31.97C34.5341 31.97 36.8898 31.1645 38.8298 29.795L34.9762 29.795H25.1541C26.9641 31.0728 29.1367 31.8593 31.4845 31.9587Z" fill="#F44336"/>
<path d="M31.7438 8.0061C25.5987 8.13111 20.5901 12.8758 20.051 18.9111H31.744V8.0061H31.7438Z" fill="#283991"/>
<path d="M22.3995 14.78L22.5822 15.3414H23.1741L22.6953 15.6885L22.8782 16.2502L22.3995 15.9029L21.921 16.2502L22.1036 15.6885L21.6249 15.3414H22.2168L22.3995 14.78Z" fill="#EFEFEF"/>
<path d="M22.3995 16.7632L22.5822 17.3249H23.1741L22.6953 17.6721L22.8782 18.2338L22.3995 17.8865L21.921 18.2338L22.1036 17.6721L21.6249 17.3249H22.2168L22.3995 16.7632Z" fill="#EFEFEF"/>
<path d="M24.3872 11.8045L24.57 12.366H25.1617L24.683 12.7134L24.8657 13.2747L24.3872 12.9278L23.9086 13.2747L24.0913 12.7134L23.6124 12.366H24.2043L24.3872 11.8045Z" fill="#EFEFEF"/>
<path d="M24.3872 13.7881L24.57 14.3496H25.1617L24.683 14.6965L24.8657 15.2583L24.3872 14.9114L23.9086 15.2583L24.0913 14.6965L23.6124 14.3496H24.2043L24.3872 13.7881Z" fill="#EFEFEF"/>
<path d="M24.3872 15.7716L24.57 16.3334H25.1617L24.683 16.6801L24.8657 17.2418L24.3872 16.8946L23.9086 17.2418L24.0913 16.6801L23.6124 16.3334H24.2043L24.3872 15.7716Z" fill="#EFEFEF"/>
<path d="M20.8904 17.2418L20.7075 16.6801L21.1862 16.3332H20.5947L20.5814 16.2922C20.5164 16.4927 20.4578 16.6956 20.4036 16.9008L20.412 16.8946L20.8904 17.2418Z" fill="#EFEFEF"/>
<path d="M21.921 14.2667L22.3995 13.9194L22.8782 14.2667L22.6953 13.7049L23.174 13.3577H22.5821L22.3994 12.7963L22.2166 13.3577H21.9985C21.958 13.4189 21.9188 13.4805 21.8794 13.5426L22.1036 13.7049L21.921 14.2667Z" fill="#EFEFEF"/>
<path d="M24.3873 10.9442L24.8657 11.2911L24.683 10.7298L25.1615 10.3825H24.8197C24.5294 10.5991 24.2494 10.8283 23.9803 11.0701L23.9082 11.2911L24.3873 10.9442Z" fill="#EFEFEF"/>
<path d="M25.8963 10.2996L26.375 9.95229L26.8535 10.2996L26.6708 9.73781L27.1492 9.3909H26.5575L26.5327 9.31531C26.3322 9.41752 26.1338 9.52388 25.9399 9.63706L26.0789 9.73776L25.8963 10.2996Z" fill="#EFEFEF"/>
<path d="M26.375 10.8129L26.5577 11.3741H27.1494L26.6707 11.7214L26.8535 12.2831L26.375 11.9358L25.8963 12.2831L26.079 11.7214L25.6002 11.3741H26.1921L26.375 10.8129Z" fill="#EFEFEF"/>
<path d="M26.375 12.7965L26.5577 13.3577H27.1494L26.6707 13.7049L26.8535 14.2667L26.375 13.9194L25.8963 14.2667L26.079 13.7049L25.6002 13.3577H26.1921L26.375 12.7965Z" fill="#EFEFEF"/>
<path d="M26.375 14.78L26.5577 15.3414H27.1494L26.6707 15.6885L26.8535 16.2502L26.375 15.9029L25.8963 16.2502L26.079 15.6885L25.6002 15.3414H26.1921L26.375 14.78Z" fill="#EFEFEF"/>
<path d="M26.375 16.7632L26.5577 17.3249H27.1494L26.6707 17.6721L26.8535 18.2338L26.375 17.8865L25.8963 18.2338L26.079 17.6721L25.6002 17.3249H26.1921L26.375 16.7632Z" fill="#EFEFEF"/>
<path d="M28.3627 9.82093L28.5455 10.3825H29.1372L28.6587 10.7298L28.8412 11.2911L28.3627 10.9442L27.8839 11.2911L28.0668 10.7298L27.588 10.3825H28.1798L28.3627 9.82093Z" fill="#EFEFEF"/>
<path d="M28.3627 11.8045L28.5455 12.366H29.1372L28.6587 12.7134L28.8412 13.2747L28.3627 12.9278L27.8839 13.2747L28.0668 12.7134L27.588 12.366H28.1798L28.3627 11.8045Z" fill="#EFEFEF"/>
<path d="M28.3627 13.7881L28.5455 14.3496H29.1372L28.6587 14.6965L28.8412 15.2583L28.3627 14.9114L27.8839 15.2583L28.0668 14.6965L27.588 14.3496H28.1798L28.3627 13.7881Z" fill="#EFEFEF"/>
<path d="M28.3627 15.7716L28.5455 16.3334H29.1372L28.6587 16.6801L28.8412 17.2418L28.3627 16.8946L27.8839 17.2418L28.0668 16.6801L27.588 16.3334H28.1798L28.3627 15.7716Z" fill="#EFEFEF"/>
<path d="M30.3505 8.82935L30.5332 9.3909H31.1249L30.6462 9.73781L30.829 10.2996L30.3505 9.95224L29.8716 10.2996L30.0545 9.73781L29.5757 9.3909H30.1674L30.3505 8.82935Z" fill="#EFEFEF"/>
<path d="M30.3505 10.8129L30.5332 11.3741H31.1249L30.6462 11.7214L30.829 12.2831L30.3505 11.9358L29.8716 12.2831L30.0545 11.7214L29.5757 11.3741H30.1674L30.3505 10.8129Z" fill="#EFEFEF"/>
<path d="M30.3505 12.7965L30.5332 13.3577H31.1249L30.6462 13.7049L30.829 14.2667L30.3505 13.9194L29.8716 14.2667L30.0545 13.7049L29.5757 13.3577H30.1674L30.3505 12.7965Z" fill="#EFEFEF"/>
<path d="M30.3505 14.78L30.5332 15.3414H31.1249L30.6462 15.6885L30.829 16.2502L30.3505 15.9029L29.8716 16.2502L30.0545 15.6885L29.5757 15.3414H30.1674L30.3505 14.78Z" fill="#EFEFEF"/>
<path d="M30.3505 16.7632L30.5332 17.3249H31.1249L30.6462 17.6721L30.829 18.2338L30.3505 17.8865L29.8716 18.2338L30.0545 17.6721L29.5757 17.3249H30.1674L30.3505 16.7632Z" fill="#EFEFEF"/>
<defs>
<filter id="filter0_f_2941_216340" x="-72" y="-48" width="136" height="136" filterUnits="userSpaceOnUse" color-interpolation-filters="sRGB">
<feFlood flood-opacity="0" result="BackgroundImageFix"/>
<feBlend mode="normal" in="SourceGraphic" in2="BackgroundImageFix" result="shape"/>
<feGaussianBlur stdDeviation="24" result="effect1_foregroundBlur_2941_216340"/>
</filter>
<filter id="filter1_f_2941_216340" x="0" y="-52" width="144" height="144" filterUnits="userSpaceOnUse" color-interpolation-filters="sRGB">
<feFlood flood-opacity="0" result="BackgroundImageFix"/>
<feBlend mode="normal" in="SourceGraphic" in2="BackgroundImageFix" result="shape"/>
<feGaussianBlur stdDeviation="24" result="effect1_foregroundBlur_2941_216340"/>
</filter>
<clipPath id="clip0_2941_216340">
<rect width="64" height="40" rx="4" fill="white"/>
</clipPath>
</defs>
</svg>
