<svg viewBox="0 0 64 40" fill="none" xmlns="http://www.w3.org/2000/svg">
<g clip-path="url(#clip0_2622_204940)">
<rect width="64" height="40" rx="4" fill="white"/>
<g filter="url(#filter0_f_2622_204940)">
<circle cx="-4" cy="20" r="20" fill="#2775CA"/>
</g>
<g filter="url(#filter1_f_2622_204940)">
<circle cx="72" cy="20" r="24" fill="#224CE1"/>
</g>
</g>
<path d="M25.3121 17.4583H25.6399C25.7238 17.4583 25.7915 17.526 25.7915 17.6093V20.5453C25.7915 21.4734 26.2942 22.0594 27.2295 22.0594C28.1648 22.0594 28.6675 21.4734 28.6675 20.5459V17.6099C28.6675 17.526 28.7353 17.4583 28.8191 17.4583H29.1469C29.2308 17.4583 29.2985 17.526 29.2985 17.6093V20.5536C29.2985 21.8167 28.6052 22.622 27.2295 22.622C25.8532 22.622 25.1606 21.8089 25.1606 20.5608V17.6099C25.1588 17.526 25.2265 17.4589 25.3121 17.4589V17.4583ZM30.265 21.4578C30.3129 21.3955 30.4064 21.3901 30.4627 21.444C30.8024 21.7742 31.3105 22.0594 31.9546 22.0594C32.8594 22.0594 33.1488 21.5722 33.1488 21.1846C33.1488 20.5746 32.5334 20.408 31.8636 20.2259C31.0505 20.012 30.1439 19.7849 30.1439 18.7879C30.1439 17.9508 30.8899 17.3804 31.8875 17.3804C32.6035 17.3804 33.1698 17.5997 33.5874 17.9856C33.6473 18.0401 33.6533 18.1336 33.6006 18.1953L33.4029 18.4379C33.3543 18.4979 33.265 18.5021 33.2087 18.4499C32.8378 18.1024 32.3489 17.943 31.8408 17.943C31.2314 17.943 30.7982 18.2714 30.7982 18.7483C30.7982 19.2588 31.3842 19.4104 32.0307 19.5848C32.8594 19.8065 33.8025 20.0641 33.8025 21.1301C33.8025 21.867 33.2998 22.6202 31.9319 22.6202C31.1128 22.6202 30.4956 22.3314 30.0762 21.912C30.0223 21.8581 30.0163 21.7706 30.0642 21.7101L30.265 21.4584V21.4578ZM34.5539 17.6093C34.5539 17.5254 34.6216 17.4583 34.7049 17.4583H36.2867C37.8607 17.4583 38.8895 18.5608 38.8895 19.9988C38.8895 21.444 37.8625 22.5309 36.2867 22.5309H34.7049C34.6216 22.5309 34.5539 22.4632 34.5539 22.3799V17.6093ZM36.2885 21.9683C37.521 21.9683 38.2352 21.0851 38.2352 19.9982C38.2352 18.9017 37.5426 18.0209 36.2885 18.0209H35.186V21.9683H36.2885ZM45.2025 20.6915C45.2025 19.6255 45.9035 18.7663 47.021 18.7663C48.1384 18.7663 48.8395 19.6255 48.8395 20.6915C48.8395 21.7568 48.1384 22.6244 47.021 22.6244C45.9029 22.6244 45.2025 21.755 45.2025 20.6915ZM48.2379 20.6915C48.2379 19.9461 47.8047 19.2762 47.021 19.2762C46.2367 19.2762 45.7963 19.9461 45.7963 20.6915C45.7963 21.444 46.2367 22.1139 47.021 22.1139C47.8047 22.1139 48.2373 21.444 48.2373 20.6915H48.2379ZM49.3865 17.8537C49.3865 17.6404 49.5615 17.4733 49.767 17.4733C49.9803 17.4733 50.1553 17.6404 50.1553 17.8537C50.1553 18.0677 49.9803 18.242 49.767 18.242C49.5615 18.242 49.3865 18.0653 49.3865 17.8537ZM49.637 18.8574H49.903C49.9863 18.8574 50.054 18.9251 50.054 19.0084V22.3799C50.054 22.4632 49.9863 22.5309 49.903 22.5309H49.637C49.5531 22.5309 49.4854 22.4632 49.4854 22.3799V19.0084C49.4854 18.9251 49.5537 18.8574 49.637 18.8574ZM53.3417 20.1282C53.3417 19.4823 53.014 19.2762 52.5208 19.2762C52.0726 19.2762 51.646 19.55 51.4321 19.8472V22.3799C51.4321 22.4632 51.3644 22.5309 51.2805 22.5309H51.0151C50.9312 22.5309 50.8635 22.4632 50.8635 22.3799V19.0084C50.8635 18.9251 50.9312 18.8574 51.0151 18.8574H51.2805C51.3644 18.8574 51.4321 18.9251 51.4321 19.0084V19.3888C51.6898 19.0845 52.1931 18.7657 52.7401 18.7657C53.5089 18.7657 53.9121 19.154 53.9121 19.9521V22.3775C53.9121 22.4614 53.8444 22.5291 53.7611 22.5291H53.4951C53.4112 22.5291 53.3435 22.4614 53.3435 22.3775V20.1282H53.3417ZM40.3312 19.9988C40.3312 18.4385 41.4804 17.375 42.9184 17.375C43.7704 17.375 44.3684 17.7459 44.7717 18.2546C44.822 18.3181 44.8046 18.4134 44.7327 18.4541L44.4493 18.6111C44.3852 18.6483 44.3037 18.6309 44.2576 18.5746C43.9562 18.2019 43.469 17.9394 42.9184 17.9394C41.8297 17.9394 40.9855 18.7921 40.9855 20.0006C40.9855 21.2026 41.8297 22.0618 42.9184 22.0618C43.4714 22.0618 43.9586 21.8059 44.257 21.4272C44.3037 21.3691 44.3834 21.3535 44.4493 21.3883L44.7369 21.5459C44.8106 21.5866 44.828 21.6837 44.7753 21.7478C44.3558 22.2601 43.7704 22.625 42.9178 22.625C41.4798 22.6226 40.3312 21.5591 40.3312 19.9988Z" fill="#4D4E50"/>
<path d="M16.25 26C19.5637 26 22.25 23.3137 22.25 20C22.25 16.6863 19.5637 14 16.25 14C12.9363 14 10.25 16.6863 10.25 20C10.25 23.3137 12.9363 26 16.25 26Z" fill="#2775CA"/>
<path d="M15.1255 24.0082C15.1255 24.1492 15.015 24.2298 14.8785 24.187C13.0644 23.608 11.7488 21.9073 11.7488 19.9C11.7488 17.8927 13.0637 16.1913 14.8785 15.6123C15.015 15.5702 15.1255 15.6501 15.1255 15.7918V16.1397C15.1255 16.2342 15.0528 16.3446 14.9635 16.3751C13.5279 16.9018 12.4992 18.2807 12.4992 19.8978C12.4992 21.5142 13.5279 22.8931 14.9635 23.4198C15.0528 23.4532 15.1255 23.5615 15.1255 23.6552V24.0082Z" fill="white"/>
<path d="M16.6242 22.7115C16.6242 22.8153 16.5399 22.9003 16.436 22.9003H16.0619C15.9587 22.9003 15.8737 22.8153 15.8737 22.7115V22.1187C15.055 22.0082 14.6547 21.5491 14.5465 20.9258C14.5276 20.8197 14.6126 20.7231 14.7208 20.7231H15.1494C15.2388 20.7231 15.3136 20.787 15.3325 20.8764C15.4124 21.2483 15.6267 21.5331 16.2835 21.5331C16.768 21.5331 17.1117 21.2621 17.1117 20.8575C17.1117 20.4528 16.909 20.2995 16.1985 20.1819C15.1494 20.0409 14.6525 19.7234 14.6525 18.8996C14.6525 18.2647 15.132 17.7707 15.8759 17.6646V17.0834C15.8759 16.9795 15.9609 16.8945 16.0648 16.8945H16.4382C16.5421 16.8945 16.6271 16.9795 16.6271 17.0834V17.6806C17.2315 17.7896 17.6151 18.1325 17.7401 18.702C17.7633 18.811 17.6783 18.9112 17.5679 18.9112H17.1734C17.0884 18.9112 17.018 18.8553 16.9918 18.7732C16.8865 18.41 16.6278 18.2552 16.1781 18.2552C15.682 18.2552 15.4248 18.495 15.4248 18.8313C15.4248 19.1873 15.5708 19.366 16.3329 19.4764C17.3645 19.6174 17.8955 19.9116 17.8955 20.7892C17.8955 21.4554 17.4015 21.9937 16.6278 22.1187V22.7115H16.6242Z" fill="white"/>
<path d="M17.6224 24.1863C17.4858 24.2292 17.3754 24.1486 17.3754 24.0076V23.6589C17.3754 23.5557 17.4386 23.4591 17.5374 23.4243C18.9729 22.8968 20.0009 21.518 20.0009 19.9016C20.0009 18.2851 18.9729 16.9063 17.5381 16.3789C17.448 16.3462 17.3754 16.2379 17.3754 16.1435V15.7955C17.3754 15.6546 17.4858 15.5717 17.6224 15.6168C19.4364 16.1958 20.7513 17.8965 20.7513 19.9037C20.7491 21.9066 19.4364 23.6052 17.6224 24.1863Z" fill="white"/>
<defs>
<filter id="filter0_f_2622_204940" x="-72" y="-48" width="136" height="136" filterUnits="userSpaceOnUse" color-interpolation-filters="sRGB">
<feFlood flood-opacity="0" result="BackgroundImageFix"/>
<feBlend mode="normal" in="SourceGraphic" in2="BackgroundImageFix" result="shape"/>
<feGaussianBlur stdDeviation="24" result="effect1_foregroundBlur_2622_204940"/>
</filter>
<filter id="filter1_f_2622_204940" x="0" y="-52" width="144" height="144" filterUnits="userSpaceOnUse" color-interpolation-filters="sRGB">
<feFlood flood-opacity="0" result="BackgroundImageFix"/>
<feBlend mode="normal" in="SourceGraphic" in2="BackgroundImageFix" result="shape"/>
<feGaussianBlur stdDeviation="24" result="effect1_foregroundBlur_2622_204940"/>
</filter>
<clipPath id="clip0_2622_204940">
<rect width="64" height="40" rx="4" fill="white"/>
</clipPath>
</defs>
</svg>
