<svg viewBox="0 0 64 40" fill="none" xmlns="http://www.w3.org/2000/svg">
<g clip-path="url(#clip0_2622_204932)">
<rect width="64" height="40" rx="4" fill="white"/>
<g filter="url(#filter0_f_2622_204932)">
<circle cx="-4" cy="20" r="20" fill="#009393"/>
</g>
<g filter="url(#filter1_f_2622_204932)">
<circle cx="72" cy="20" r="24" fill="#04D9D9"/>
</g>
</g>
<path fill-rule="evenodd" clip-rule="evenodd" d="M12.0804 15.1726H18.9048C19.0676 15.1726 19.2181 15.2586 19.2993 15.398L21.2875 18.8116C21.3906 18.9886 21.36 19.2121 21.2129 19.3556L15.7403 24.6975C15.563 24.8706 15.2778 24.8706 15.1005 24.6975L9.63524 19.3628C9.48475 19.216 9.45658 18.986 9.56724 18.8079L11.6925 15.387C11.7753 15.2538 11.9221 15.1726 12.0804 15.1726ZM18.0237 16.6967V17.6545H16.0797V18.3186C17.445 18.3895 18.4693 18.681 18.477 19.0304L18.4769 19.7587C18.4693 20.108 17.445 20.3995 16.0797 20.4705V22.1002H14.7888V20.4705C13.4235 20.3995 12.3991 20.108 12.3915 19.7587L12.3916 19.0304C12.3991 18.681 13.4235 18.3895 14.7888 18.3186V17.6545H12.8448V16.6967H18.0237ZM15.4342 19.9701C16.8913 19.9701 18.1092 19.7236 18.4072 19.3945C18.1545 19.1154 17.2403 18.8957 16.0797 18.8354V19.5307C15.8716 19.5415 15.6557 19.5472 15.4342 19.5472C15.2128 19.5472 14.9968 19.5415 14.7888 19.5307V18.8354C13.6282 18.8957 12.714 19.1154 12.4613 19.3945C12.7593 19.7236 13.9772 19.9701 15.4342 19.9701Z" fill="#009393"/>
<path d="M23.9516 17.025L25.5291 16.8497V18.3616H26.8985V19.6762H25.5182V21.7138C25.5182 22.1959 25.7227 22.4369 26.1317 22.4369C26.3946 22.4369 26.6137 22.3931 26.789 22.3054L27.1505 23.62C26.7926 23.7588 26.4129 23.8392 26.0112 23.861C25.3758 23.8903 24.8718 23.7405 24.4994 23.4119C24.1342 23.0759 23.9516 22.5099 23.9516 21.7138V19.6762H22.9875V18.3616H23.9516V17.025Z" fill="#009393"/>
<path d="M32.8028 21.5495H28.8261C28.8699 21.827 29.0196 22.0571 29.2752 22.2397C29.5309 22.415 29.8705 22.5026 30.2941 22.5026C30.9002 22.5026 31.3676 22.3602 31.6963 22.0754L32.5837 23.0613C32.0432 23.5945 31.269 23.861 30.2612 23.861C29.2971 23.861 28.5485 23.6018 28.0154 23.0832C27.4895 22.5647 27.2266 21.8636 27.2266 20.9798C27.2266 20.1473 27.4859 19.4753 28.0044 18.9641C28.5229 18.4455 29.2204 18.1863 30.0969 18.1863C31.0536 18.1863 31.784 18.4784 32.2879 19.0627C32.7991 19.647 32.9708 20.4759 32.8028 21.5495ZM28.8261 20.3992H31.3896C31.3749 20.1217 31.2435 19.9099 30.9952 19.7638C30.7469 19.6104 30.4474 19.5338 30.0969 19.5338C29.7828 19.5338 29.5126 19.6104 29.2862 19.7638C29.0598 19.9172 28.9064 20.129 28.8261 20.3992Z" fill="#009393"/>
<path d="M34.118 17.025L35.6955 16.8497V18.3616H37.0649V19.6762H35.6846V21.7138C35.6846 22.1959 35.8891 22.4369 36.2981 22.4369C36.561 22.4369 36.7801 22.3931 36.9554 22.3054L37.3169 23.62C36.9591 23.7588 36.5793 23.8392 36.1776 23.861C35.5422 23.8903 35.0382 23.7405 34.6658 23.4119C34.3006 23.0759 34.118 22.5099 34.118 21.7138V19.6762H33.1539V18.3616H34.118V17.025Z" fill="#009393"/>
<path d="M37.9084 16.0719H39.4969V18.997C39.884 18.493 40.4318 18.241 41.1402 18.241C42.579 18.241 43.2984 19.1065 43.2984 20.8374V23.7405H41.7209V20.8484C41.7209 20.4759 41.6259 20.1874 41.436 19.9829C41.2534 19.7784 41.0051 19.6762 40.6911 19.6762C40.3478 19.6762 40.0593 19.793 39.8256 20.0268C39.5992 20.2605 39.486 20.5855 39.486 21.0017V23.7405H37.9084V16.0719Z" fill="#009393"/>
<path d="M49.4853 21.5495H45.5087C45.5525 21.827 45.7023 22.0571 45.9577 22.2397C46.2134 22.415 46.5531 22.5026 46.9769 22.5026C47.5829 22.5026 48.0504 22.3602 48.3788 22.0754L49.2665 23.0613C48.7259 23.5945 47.9518 23.861 46.944 23.861C45.9796 23.861 45.2312 23.6018 44.698 23.0832C44.1722 22.5647 43.9092 21.8636 43.9092 20.9798C43.9092 20.1473 44.1685 19.4753 44.6871 18.9641C45.2056 18.4455 45.9029 18.1863 46.7796 18.1863C47.7363 18.1863 48.4665 18.4784 48.9706 19.0627C49.4816 19.647 49.6533 20.4759 49.4853 21.5495ZM45.5087 20.3992H48.0724C48.0578 20.1217 47.9262 19.9099 47.6778 19.7638C47.4295 19.6104 47.1299 19.5338 46.7796 19.5338C46.4655 19.5338 46.1951 19.6104 45.9687 19.7638C45.7424 19.9172 45.5891 20.129 45.5087 20.3992Z" fill="#009393"/>
<path d="M50.1395 18.3396H51.6076L51.7282 18.9312C52.0716 18.4492 52.5534 18.2082 53.1744 18.2082C53.6854 18.2082 54.1274 18.3725 54.5 18.7012L53.8425 19.95C53.5868 19.7675 53.2986 19.6762 52.9771 19.6762C52.6191 19.6762 52.32 19.7894 52.0789 20.0158C51.8378 20.2349 51.7172 20.538 51.7172 20.9251V23.7405H50.1395V18.3396Z" fill="#009393"/>
<defs>
<filter id="filter0_f_2622_204932" x="-72" y="-48" width="136" height="136" filterUnits="userSpaceOnUse" color-interpolation-filters="sRGB">
<feFlood flood-opacity="0" result="BackgroundImageFix"/>
<feBlend mode="normal" in="SourceGraphic" in2="BackgroundImageFix" result="shape"/>
<feGaussianBlur stdDeviation="24" result="effect1_foregroundBlur_2622_204932"/>
</filter>
<filter id="filter1_f_2622_204932" x="0" y="-52" width="144" height="144" filterUnits="userSpaceOnUse" color-interpolation-filters="sRGB">
<feFlood flood-opacity="0" result="BackgroundImageFix"/>
<feBlend mode="normal" in="SourceGraphic" in2="BackgroundImageFix" result="shape"/>
<feGaussianBlur stdDeviation="24" result="effect1_foregroundBlur_2622_204932"/>
</filter>
<clipPath id="clip0_2622_204932">
<rect width="64" height="40" rx="4" fill="white"/>
</clipPath>
</defs>
</svg>
